<svg width="21" height="22" viewBox="0 0 21 22" fill="none" xmlns="http://www.w3.org/2000/svg">
<g clip-path="url(#clip0_6_2786)">
<path d="M7.8 19.4667C8.27865 19.4667 8.66667 19.0787 8.66667 18.6001C8.66667 18.1214 8.27865 17.7334 7.8 17.7334C7.32135 17.7334 6.93333 18.1214 6.93333 18.6001C6.93333 19.0787 7.32135 19.4667 7.8 19.4667Z" fill="#213F74" stroke="#213F74" stroke-width="1.6" stroke-linecap="round" stroke-linejoin="round"/>
<path d="M17.3333 19.4667C17.812 19.4667 18.2 19.0787 18.2 18.6001C18.2 18.1214 17.812 17.7334 17.3333 17.7334C16.8547 17.7334 16.4667 18.1214 16.4667 18.6001C16.4667 19.0787 16.8547 19.4667 17.3333 19.4667Z" fill="#213F74" stroke="#213F74" stroke-width="1.6" stroke-linecap="round" stroke-linejoin="round"/>
<path d="M0.866669 1.26672H4.33334L6.656 12.8714C6.73525 13.2704 6.95232 13.6288 7.26921 13.8839C7.58609 14.139 7.98261 14.2745 8.38934 14.2667H16.8133C17.2201 14.2745 17.6166 14.139 17.9335 13.8839C18.2504 13.6288 18.4674 13.2704 18.5467 12.8714L19.9333 5.60006H5.2" stroke="#213F74" stroke-width="1.6" stroke-linecap="round" stroke-linejoin="round"/>
</g>
<defs>
<clipPath id="clip0_6_2786">
<rect width="20.8" height="20.8" fill="white" transform="translate(0 0.400024)"/>
</clipPath>
</defs>
</svg>
