<svg width="20" height="16" viewBox="0 0 20 16" fill="none" xmlns="http://www.w3.org/2000/svg">
<path d="M11.6704 1.33325H8.32871C5.17871 1.33325 3.60371 1.33325 2.62454 2.30992C1.94954 2.98159 1.74037 3.93575 1.67454 5.49075C1.66204 5.79909 1.65537 5.95409 1.71287 6.05659C1.77121 6.15909 2.00037 6.28825 2.46037 6.54492C2.71949 6.68937 2.93532 6.9004 3.08558 7.15619C3.23583 7.41198 3.31505 7.70326 3.31505 7.99992C3.31505 8.29658 3.23583 8.58785 3.08558 8.84364C2.93532 9.09944 2.71949 9.31046 2.46037 9.45492C2.00037 9.71242 1.77037 9.84075 1.71287 9.94325C1.65537 10.0458 1.66204 10.1999 1.67537 10.5083C1.74037 12.0641 1.95037 13.0183 2.62454 13.6899C3.60287 14.6666 5.17787 14.6666 8.32871 14.6666H11.6704C14.8204 14.6666 16.3954 14.6666 17.3745 13.6899C18.0495 13.0183 18.2587 12.0641 18.3245 10.5091C18.337 10.2008 18.3437 10.0458 18.2862 9.94325C18.2279 9.84075 17.9987 9.71242 17.5387 9.45492C17.2796 9.31046 17.0638 9.09944 16.9135 8.84364C16.7633 8.58785 16.684 8.29658 16.684 7.99992C16.684 7.70326 16.7633 7.41198 16.9135 7.15619C17.0638 6.9004 17.2796 6.68937 17.5387 6.54492C17.9987 6.28825 18.2287 6.15909 18.2862 6.05659C18.3437 5.95409 18.337 5.79992 18.3237 5.49075C18.2587 3.93575 18.0487 2.98242 17.3745 2.30992C16.3962 1.33325 14.8212 1.33325 11.6704 1.33325Z" stroke="white" stroke-width="1.5"/>
<path d="M7.5 10.5L12.5 5.5" stroke="white" stroke-width="1.5" stroke-linecap="round"/>
<path d="M12.9154 10.0833C12.9154 10.3043 12.8276 10.5162 12.6713 10.6725C12.515 10.8288 12.303 10.9166 12.082 10.9166C11.861 10.9166 11.6491 10.8288 11.4928 10.6725C11.3365 10.5162 11.2487 10.3043 11.2487 10.0833C11.2487 9.86224 11.3365 9.65028 11.4928 9.494C11.6491 9.33772 11.861 9.24992 12.082 9.24992C12.303 9.24992 12.515 9.33772 12.6713 9.494C12.8276 9.65028 12.9154 9.86224 12.9154 10.0833ZM8.7487 5.91659C8.7487 6.1376 8.6609 6.34956 8.50462 6.50584C8.34834 6.66212 8.13638 6.74992 7.91536 6.74992C7.69435 6.74992 7.48239 6.66212 7.32611 6.50584C7.16983 6.34956 7.08203 6.1376 7.08203 5.91659C7.08203 5.69557 7.16983 5.48361 7.32611 5.32733C7.48239 5.17105 7.69435 5.08325 7.91536 5.08325C8.13638 5.08325 8.34834 5.17105 8.50462 5.32733C8.6609 5.48361 8.7487 5.69557 8.7487 5.91659Z" fill="white"/>
</svg>
