<svg width="45" height="35" viewBox="0 0 45 35" fill="none" xmlns="http://www.w3.org/2000/svg">
<path fill-rule="evenodd" clip-rule="evenodd" d="M43.8949 1.54237C46.5837 3.30156 38.7298 15.7926 35.8964 19.4566C36.3017 18.6123 36.8862 17.4771 37.5346 16.2179L37.5349 16.2173C39.1375 13.105 41.13 9.2355 41.7699 7.12758C42.7439 3.91906 41.7699 1.54237 37.7558 2.6713C34.5148 3.58285 31.056 5.16799 24.0433 15.9219C27.3118 20.7877 28.218 24.4033 27.4847 27.983C27.2049 29.3488 26.4524 30.5839 25.4467 31.4441C28.3149 31.5904 34.8016 31.4533 39.8806 29.7953C38.3064 31.5877 32.6258 34.6912 22.4963 32.7661C18.8955 33.8851 10.1473 34.8576 3.96094 29.7953C5.80403 30.659 11.4285 32.1864 19.2764 31.4494C18.4206 30.6967 17.6202 29.5682 16.9479 27.983C15.5869 24.7744 17.9 19.9834 20.7601 15.7885C14.2098 5.84185 6.6438 0.0159672 3.07587 3.17635C0.862255 5.13712 6.09621 14.9873 8.86076 19.4567C4.51223 14.3567 -1.44406 4.17684 0.714647 1.54237C3.07595 -1.33936 12.7669 1.85281 20.6372 11.4056C21.2542 12.1546 21.8266 12.8758 22.356 13.572C24.8287 10.3042 27.2862 7.73093 27.8979 7.12758C29.3736 5.67186 38.5823 -1.93353 43.8949 1.54237ZM22.5852 18.7139C22.5342 18.6277 22.4831 18.5416 22.4319 18.4558C15.0806 30.3678 20.9408 30.9539 22.172 30.9539C23.4116 30.9539 29.5212 30.4488 22.5852 18.7139Z" fill="white"/>
</svg>
